HIERARCHY
ROOT Hips
{
	OFFSET 0.000000 0.000000 0.000000 
	CHANNELS 6 Xposition Yposition Zposition Zrotation Yrotation Xrotation
	JOINT LeftUpLeg
	{
		OFFSET 1.363060 -1.794630 0.839290 
		CHANNELS 3 Zrotation Yrotation Xrotation
		JOINT LeftLeg
		{
			OFFSET 2.448110 -6.726130 0.000000 
			CHANNELS 3 Zrotation Yrotation Xrotation
			JOINT LeftFoot
			{
				OFFSET 2.562200 -7.039590 0.000000 
				CHANNELS 3 Zrotation Yrotation Xrotation
				JOINT LeftToeBase
				{
					OFFSET 0.157640 -0.433110 2.322550 
					CHANNELS 3 Zrotation Yrotation Xrotation
					End Site
					{
						OFFSET 0.000000 0.000000 0.000000 
					}
				}
			}
		}
	}
	JOINT RightUpLeg
	{
		OFFSET -1.305520 -1.794630 0.839290 
		CHANNELS 3 Zrotation Yrotation Xrotation
		JOINT RightLeg
		{
			OFFSET -2.542530 -6.985550 0.000000 
			CHANNELS 3 Zrotation Yrotation Xrotation
			JOINT RightFoot
			{
				OFFSET -2.568260 -7.056230 0.000000 
				CHANNELS 3 Zrotation Yrotation Xrotation
				JOINT RightToeBase
				{
					OFFSET -0.164730 -0.452590 2.363150 
					CHANNELS 3 Zrotation Yrotation Xrotation
					End Site
					{
						OFFSET 0.000000 0.000000 0.000000 
					}
				}
			}
		}
	}
	JOINT Spine
	{
		OFFSET 0.028270 2.035590 -0.193380 
		CHANNELS 3 Zrotation Yrotation Xrotation
		JOINT Spine1
		{
			OFFSET 0.056720 2.048850 -0.042750 
			CHANNELS 3 Zrotation Yrotation Xrotation
			JOINT Neck1
			{
				OFFSET -0.054170 1.746240 0.172020 
				CHANNELS 3 Zrotation Yrotation Xrotation
				JOINT Head
				{
					OFFSET 0.104070 1.761360 -0.123970 
					CHANNELS 3 Zrotation Yrotation Xrotation
					End Site
					{
						OFFSET 0.000000 0.000000 0.000000 
					}
				}
			}
			JOINT LeftArm
			{
				OFFSET 3.362410 1.200890 -0.311210 
				CHANNELS 3 Zrotation Yrotation Xrotation
				JOINT LeftForeArm
				{
					OFFSET 4.983000 -0.000000 -0.000000 
					CHANNELS 3 Zrotation Yrotation Xrotation
					JOINT LeftHand
					{
						OFFSET 3.483560 -0.000000 -0.000000 
						CHANNELS 3 Zrotation Yrotation Xrotation
						JOINT LeftHandIndex1
						{
							OFFSET 0.715260 -0.000000 -0.000000 
							CHANNELS 3 Zrotation Yrotation Xrotation
							End Site
							{
								OFFSET 0.000000 0.000000 0.000000 
							}
						}
					}
				}
			}
			JOINT RightArm
			{
				OFFSET -3.136600 1.374050 -0.404650 
				CHANNELS 3 Zrotation Yrotation Xrotation
				JOINT RightForeArm
				{
					OFFSET -5.241900 -0.000000 -0.000000 
					CHANNELS 3 Zrotation Yrotation Xrotation
					JOINT RightHand
					{
						OFFSET -3.444170 -0.000000 -0.000000 
						CHANNELS 3 Zrotation Yrotation Xrotation
						JOINT RightHandIndex1
						{
							OFFSET -0.622530 -0.000000 -0.000000 
							CHANNELS 3 Zrotation Yrotation Xrotation
							End Site
							{
								OFFSET 0.000000 0.000000 0.000000 
							}
						}
					}
				}
			}
		}
	}
}
MOTION
Frames: 10
Frame Time: 0.041667
50.474587 16.970012 -7.159959 -9.419851 -78.048929 9.289865 -24.753175 4.539984 -2.444258 0.963778 7.383712 23.042852 1.078201 -5.071134 -12.005059 0.111500 -2.152900 -5.928400 31.651283 3.630461 -2.446345 -4.154454 -11.385799 35.342114 -2.292171 1.626380 -27.191275 -0.638300 -5.111300 14.226400 0.343541 0.182972 -3.714074 0.244260 -0.055903 -1.869447 9.277229 -15.247631 1.831767 5.375600 -7.190400 3.808800 -60.659952 5.534408 53.638024 147.787144 -34.687992 -110.617883 0.589700 -0.928400 -35.642201 -7.125000 0.000000 0.000000 61.067482 -18.353802 68.054392 -113.180286 54.212343 -79.496043 -0.504968 0.130253 -12.439043 7.125000 0.000000 0.000000 
50.470260 16.968981 -7.143061 -9.489107 -78.360457 9.336974 -24.859550 4.733374 -2.369782 0.953899 7.352751 22.959486 1.074708 -5.000183 -12.050664 0.106900 -2.108000 -5.804200 31.537838 3.823567 -2.576881 -4.228394 -11.495317 35.707387 -2.274066 1.736754 -27.026811 -0.597200 -4.947000 13.757600 0.365921 0.078835 -3.716116 0.296582 -0.108388 -1.862632 9.225314 -15.202863 1.855684 5.330900 -7.171600 3.808700 -60.743376 5.293321 53.576607 147.868984 -34.567547 -110.681332 0.584462 -0.923816 -35.700926 -7.125000 0.000000 0.000000 61.147313 -18.414022 67.937989 -113.208544 54.207804 -79.531810 -0.503708 0.132488 -12.421325 7.125000 0.000000 0.000000 
50.466756 16.967333 -7.126368 -9.548761 -78.684312 9.374372 -24.972132 4.942452 -2.299669 0.945744 7.325078 22.885740 1.070817 -4.918255 -12.104887 0.103400 -2.073100 -5.707800 31.417735 4.026498 -2.729714 -4.312654 -11.618777 36.120725 -2.254608 1.858721 -26.848438 -0.557500 -4.782800 13.290000 0.387693 -0.020765 -3.717676 0.346058 -0.158559 -1.864990 9.159664 -15.169144 1.879000 5.274300 -7.159700 3.802200 -60.830082 5.060351 53.509074 147.947744 -34.449724 -110.743613 0.578243 -0.919813 -35.779578 -7.125000 0.000000 0.000000 61.227445 -18.473534 67.828402 -113.230472 54.204447 -79.561079 -0.501826 0.134547 -12.457912 7.125000 0.000000 0.000000 
50.464180 16.965169 -7.109779 -9.549803 -79.022537 9.352239 -25.101145 5.165607 -2.234404 0.938872 7.299877 22.818373 1.065919 -4.821780 -12.165766 0.101500 -2.054300 -5.655700 31.281523 4.241235 -2.912185 -4.409479 -11.758387 36.590404 -2.233749 1.987301 -26.658686 -0.518500 -4.614800 12.813200 0.408213 -0.115561 -3.718562 0.400494 -0.205785 -1.874541 9.091806 -15.143837 1.905300 5.216200 -7.152600 3.797200 -60.915747 4.835613 53.435823 148.029540 -34.328115 -110.808243 0.571605 -0.915845 -35.880280 -7.125000 0.000000 0.000000 61.301257 -18.529206 67.726004 -113.253597 54.200387 -79.591613 -0.499580 0.136869 -12.546466 7.125000 0.000000 0.000000 
50.462635 16.962387 -7.093499 -9.464337 -79.372834 9.230771 -25.249425 5.401567 -2.172404 0.932437 7.276311 22.754026 1.060928 -4.719313 -12.234160 0.100000 -2.038800 -5.613000 31.125690 4.470648 -3.130564 -4.521045 -11.916558 37.125545 -2.211138 2.119739 -26.457670 -0.479200 -4.439100 12.315300 0.426928 -0.206112 -3.718855 0.464140 -0.250018 -1.891278 9.033875 -15.126148 1.935774 5.166600 -7.149000 3.800400 -60.992517 4.621113 53.355902 148.116457 -34.200591 -110.876318 0.565359 -0.912810 -36.008831 -7.125000 0.000000 0.000000 61.368744 -18.579410 67.635856 -113.273578 54.196441 -79.618869 -0.496934 0.138661 -12.625642 7.125000 0.000000 0.000000 
50.462119 16.958677 -7.077527 -9.234248 -79.736249 8.960228 -25.424419 5.652562 -2.111785 0.925494 7.252938 22.687990 1.056530 -4.621313 -12.305425 0.098100 -2.020100 -5.561200 30.941458 4.714024 -3.390496 -4.649736 -12.095134 37.734466 -2.187707 2.259526 -26.249126 -0.440900 -4.260600 11.810900 0.443343 -0.294343 -3.717797 0.539806 -0.292046 -1.910304 8.990364 -15.117012 1.969481 5.128500 -7.148900 3.813500 -61.063255 4.400553 53.267557 148.206260 -34.067811 -110.946865 0.559181 -0.909412 -36.159655 -7.125000 0.000000 0.000000 61.428384 -18.615260 67.559641 -113.297179 54.190942 -79.649023 -0.494132 0.140340 -12.684817 7.125000 0.000000 0.000000 
50.462635 16.954144 -7.061865 -8.851419 -80.117291 8.540707 -25.627321 5.919142 -2.057083 0.917463 7.228737 22.616397 1.052488 -4.524603 -12.381515 0.095900 -1.997100 -5.497700 30.726916 4.976900 -3.703775 -4.797688 -12.296162 38.424550 -2.161418 2.400900 -26.022488 -0.402100 -4.071100 11.276800 0.456021 -0.374746 -3.715820 0.623349 -0.329496 -1.932556 8.968938 -15.117689 2.008329 5.108500 -7.152500 3.840300 -61.120783 4.175591 53.171212 148.301798 -33.926884 -111.021809 0.552770 -0.905550 -36.340173 -7.125000 0.000000 0.000000 61.483862 -18.636174 67.493053 -113.331544 54.181957 -79.688237 -0.491481 0.142149 -12.712751 7.125000 0.000000 0.000000 
50.463665 16.948373 -7.046615 -8.266851 -80.500372 7.912642 -25.854712 6.206500 -1.995312 0.907867 7.202235 22.535964 1.050516 -4.451125 -12.456240 0.092600 -1.963000 -5.403400 30.481718 5.245426 -4.060643 -4.966992 -12.519934 39.201664 -2.133733 2.541085 -25.789578 -0.362700 -3.868500 10.707100 0.465661 -0.454192 -3.710728 0.712603 -0.365509 -1.950881 8.955552 -15.136673 2.043079 5.093700 -7.164700 3.867600 -61.163560 3.940394 53.067596 148.405658 -33.774999 -111.102609 0.545961 -0.901314 -36.540745 -7.125000 0.000000 0.000000 61.536051 -18.637547 67.433679 -113.381266 54.169563 -79.741012 -0.489005 0.144315 -12.711446 7.125000 0.000000 0.000000 
50.465211 16.941264 -7.031571 -7.465130 -80.892764 7.066058 -26.109627 6.516489 -1.933108 0.896173 7.172504 22.443280 1.049956 -4.390809 -12.534428 0.088800 -1.921600 -5.289200 30.202224 5.523333 -4.474899 -5.159438 -12.767579 40.070534 -2.102732 2.679911 -25.535910 -0.322400 -3.649700 10.093000 0.471679 -0.528760 -3.702595 0.803164 -0.398251 -1.962222 8.945254 -15.175016 2.075221 5.080300 -7.186100 3.894000 -61.194060 3.681534 52.948683 148.515711 -33.613713 -111.187875 0.538928 -0.895380 -36.755077 -7.125000 0.000000 0.000000 61.588073 -18.618946 67.381401 -113.450459 54.153056 -79.810311 -0.486679 0.146968 -12.687264 7.125000 0.000000 0.000000 
50.467065 16.932711 -7.016630 -6.413105 -81.298318 5.970847 -26.395861 6.846140 -1.870791 0.881728 7.138325 22.334036 1.049911 -4.331426 -12.617419 0.084800 -1.878800 -5.170700 29.885776 5.816945 -4.951196 -5.376696 -13.039148 41.034815 -2.067701 2.815638 -25.257085 -0.282500 -3.418400 9.445900 0.473286 -0.595648 -3.691981 0.890631 -0.426570 -1.968343 8.937976 -15.231381 2.103940 5.069100 -7.216400 3.917800 -61.206751 3.409920 52.815170 148.634872 -33.440458 -111.279690 0.531512 -0.889044 -36.970754 -7.125000 0.000000 0.000000 61.639938 -18.583465 67.337006 -113.537913 54.132609 -79.894560 -0.484536 0.150002 -12.651833 7.125000 0.000000 0.000000 
